<?xml version="1.0" encoding="iso-8859-1"?>
<!-- Generator: Adobe Illustrator 19.0.0, SVG Export Plug-In . SVG Version: 6.00 Build 0)  -->
<svg version="1.1" id="Capa_1" xmlns="http://www.w3.org/2000/svg" xmlns:xlink="http://www.w3.org/1999/xlink" x="0px" y="0px"
	 viewBox="0 0 512 512" style="enable-background:new 0 0 512 512;" xml:space="preserve">
<g>
	<g>
		<path d="M511.213,127L385,0.787V42H105C47.103,42,0,89.103,0,147v159.542l27.481-41.222C49.739,231.933,86.984,212,127.111,212
			H385v41.213L511.213,127z M127.111,182C90.992,182,56.74,194.915,30,217.722V147c0-41.355,33.645-75,75-75h308.787l55,55l-55,55
			H127.111z"/>
	</g>
</g>
<g>
	<g>
		<path d="M484.519,246.68c-22.258,33.387-59.503,53.32-99.63,53.32H127v-41.213L0.787,385L127,511.213V470h280
			c57.897,0,105-47.103,105-105V205.458L484.519,246.68z M482,365c0,41.355-33.645,75-75,75H98.213l-55-55l55-55h286.676
			c36.119,0,70.371-12.915,97.111-35.722V365z"/>
	</g>
</g>
<g>
</g>
<g>
</g>
<g>
</g>
<g>
</g>
<g>
</g>
<g>
</g>
<g>
</g>
<g>
</g>
<g>
</g>
<g>
</g>
<g>
</g>
<g>
</g>
<g>
</g>
<g>
</g>
<g>
</g>
</svg>
