<svg width="30" height="31" viewBox="0 0 30 31" fill="none" xmlns="http://www.w3.org/2000/svg">
<path d="M19.9528 15.5672C21.4375 14.5161 22.5493 13.0199 23.1273 11.2951C23.7053 9.57025 23.7196 7.70626 23.1681 5.97278C22.6166 4.2393 21.5279 2.72624 20.0595 1.65249C18.5911 0.57874 16.8192 0 15.0001 0C13.181 0 11.4091 0.57874 9.9407 1.65249C8.4723 2.72624 7.3836 4.2393 6.83209 5.97278C6.28059 7.70626 6.29489 9.57025 6.87292 11.2951C7.45095 13.0199 8.56274 14.5161 10.0474 15.5672C7.15214 16.4109 4.60822 18.1702 2.79685 20.5813C0.985471 22.9924 0.0041775 25.9256 0 28.9413C0 29.2255 0.112882 29.498 0.313814 29.6989C0.514746 29.8999 0.787268 30.0128 1.07143 30.0128H28.9286C29.2127 30.0128 29.4853 29.8999 29.6862 29.6989C29.8871 29.498 30 29.2255 30 28.9413C29.9958 25.9256 29.0146 22.9925 27.2032 20.5814C25.3919 18.1702 22.848 16.411 19.9528 15.5672ZM8.57143 8.58419C8.57143 7.31273 8.94846 6.06984 9.65484 5.01266C10.3612 3.95549 11.3652 3.13152 12.5399 2.64496C13.7146 2.1584 15.0071 2.03109 16.2542 2.27914C17.5012 2.52718 18.6466 3.13945 19.5457 4.0385C20.4447 4.93755 21.057 6.08301 21.305 7.33003C21.5531 8.57705 21.4258 9.86963 20.9392 11.0443C20.4527 12.219 19.6287 13.223 18.5715 13.9293C17.5143 14.6357 16.2715 15.0128 15 15.0128C13.2956 15.0108 11.6616 14.3329 10.4565 13.1277C9.25129 11.9226 8.57337 10.2886 8.57143 8.58419ZM2.19107 27.8699C2.46184 24.943 3.8151 22.2226 5.98601 20.2409C8.15692 18.2592 10.9892 17.159 13.9286 17.1556H16.0714C19.0108 17.159 21.8431 18.2592 24.014 20.2409C26.1849 22.2226 27.5382 24.943 27.8089 27.8699H2.19107Z" fill="#31708F"/>
</svg>
